<svg xmlns="http://www.w3.org/2000/svg" viewBox="0 0 480 480" role="img" aria-label="Running club sample image">
  <defs>
    <linearGradient id="sky" x1="0" y1="0" x2="1" y2="1">
      <stop offset="0" stop-color="#ff8fa9"/>
      <stop offset="1" stop-color="#4f9cff"/>
    </linearGradient>
    <linearGradient id="track" x1="0" y1="0" x2="1" y2="0">
      <stop offset="0" stop-color="#ff7058"/>
      <stop offset="1" stop-color="#ffb347"/>
    </linearGradient>
  </defs>
  <rect width="480" height="480" fill="url(#sky)"/>
  <circle cx="390" cy="88" r="48" fill="#fff2a8" opacity=".9"/>
  <path d="M0 315c115-64 236-64 480 6v159H0z" fill="#2bb673"/>
  <path d="M0 346c128-52 284-52 480 4v130H0z" fill="url(#track)"/>
  <path d="M40 418c110-38 260-38 400 2" fill="none" stroke="#fff" stroke-width="12" opacity=".75"/>
  <g fill="none" stroke="#172033" stroke-linecap="round" stroke-linejoin="round">
    <circle cx="236" cy="151" r="22" fill="#172033" stroke="none"/>
    <path d="M226 180l-36 58 62 9 36 54" stroke-width="18"/>
    <path d="M199 228l-56-18" stroke-width="16"/>
    <path d="M248 248l-55 68" stroke-width="18"/>
    <path d="M275 300l56 34" stroke-width="18"/>
  </g>
</svg>
